<?xml version="1.0" encoding="utf-8"?>
<!-- Generator: Adobe Illustrator 19.2.0, SVG Export Plug-In . SVG Version: 6.00 Build 0)  -->
<svg version="1.1" id="Layer_1" xmlns="http://www.w3.org/2000/svg" xmlns:xlink="http://www.w3.org/1999/xlink" x="0px" y="0px"
	 viewBox="0 0 1080 1080" style="enable-background:new 0 0 1080 1080;" xml:space="preserve">
<style type="text/css">
	.st0{fill:#968400;stroke:#FCE500;stroke-miterlimit:10;}
</style>
<g>
	<g>
		<path class="st0" d="M320.9,540.5c0-168.3,0-336.6,0-504.9c0-0.5,0.1-1.1,0-1.6c-0.4-2.2,0.5-2.9,2.8-2.9
			c60.7,0.1,121.4,0.1,182.1,0.1c82.9,0,165.8,0,248.7,0c3.8,0,3.3-0.4,3.3,3.2c0,310.6,0,621.2,0,931.7c0,3.1,0,3.1-3.1,3.1
			c-11.9,0-23.8,0-35.8,0c-1.7,0-2.3-0.4-2.2-2.2c0.2-3.2,0-6.4,0-9.6c0-293.9,0-587.8,0-881.6c0-0.7-0.1-1.4,0-2.1
			c0.1-1.1-0.3-1.6-1.4-1.5c-0.5,0.1-1.1,0-1.6,0c-116.2,0-232.5,0-348.7,0c-3.6,0-3.1-0.5-3.1,3.1c0,310,0,620.1,0,930.1
			c0,3.1,0,3.1,3.1,3.1c103,0,206,0,308.9,0c3.9,0,3.4-0.5,3.4,3.3c0,11.8,0,23.5,0.1,35.3c0,2-0.5,2.5-2.5,2.5
			c-117.3,0-234.5-0.1-351.8,0c-2.5,0-2.3-1.2-2.3-2.8c0-66.2,0-132.4,0-198.6C320.9,745.6,320.9,643,320.9,540.5z"/>
		<path class="st0" d="M539.1,662.3c-45,0-90,0-135.1,0.1c-2.2,0-2.9-0.5-2.9-2.8c0.1-60.5,0.1-120.9,0-181.4c0-2.5,0.7-2.9,3-2.9
			c90.1,0.1,180.2,0.1,270.3,0c2.5,0,2.9,0.8,2.9,3c-0.1,35.6-0.1,71.2,0,106.8c0,2.3-0.5,2.9-2.8,2.9c-66.4-0.1-132.7-0.1-199.1,0
			c-2.1,0-2.7-0.5-2.7-2.7c0.1-11.9,0.1-23.8,0-35.8c0-2.2,0.6-2.7,2.7-2.7c52.1,0.1,104.2,0,156.2,0c3.6,0,3.1,0.4,3.1-3.1
			c0-8.3-0.1-16.6,0.1-24.9c0-2-0.3-2.7-2.5-2.7c-62.1,0.1-124.2,0.1-186.3,0c-2,0-2.4,0.6-2.4,2.5c0.1,33.3,0.1,66.5,0,99.8
			c0,2.3,0.5,3,2.9,3c75.8-0.1,151.5-0.1,227.3-0.1c3.5,0,3.5,0,3.5,3.4c0,11.7-0.1,23.4,0.1,35.1c0,2.1-0.5,2.6-2.6,2.6
			C629.6,662.3,584.4,662.3,539.1,662.3z"/>
		<path class="st0" d="M539.3,111.3c45.1,0,90.2,0,135.3-0.1c2.2,0,2.9,0.5,2.9,2.8c-0.1,60.2-0.1,120.3,0,180.5
			c0,2.2-0.7,2.6-2.8,2.6c-41.6-0.1-83.3-0.1-124.9,0c-1.9,0-2.5-0.3-2.5-2.4c0.1-12,0.1-24,0-36c0-2.1,0.4-2.7,2.6-2.7
			c27.4,0.1,54.9,0,82.3,0.1c2.1,0,2.7-0.5,2.7-2.7c-0.1-32.8-0.1-65.6,0-98.3c0-2.3-0.6-2.8-2.9-2.8c-75.8,0.1-151.7,0.1-227.5,0
			c-3.8,0-3.3,0.4-3.3-3.4c0-11.6,0.1-23.2-0.1-34.8c0-2.2,0.5-2.9,2.8-2.9C449.1,111.4,494.2,111.3,539.3,111.3z"/>
		<path class="st0" d="M539.4,969.2c-45.1,0-90.2,0-135.3,0c-2.2,0-2.9-0.4-2.9-2.8c0.1-11.8,0.1-23.7,0-35.5c0-2.3,0.6-2.8,2.8-2.8
			c75.8,0.1,151.7,0.1,227.5,0c3.9,0,3.4,0.6,3.4-3.3c0-46.1,0-92.2,0-138.3c0-2.3,0.4-3.1,2.9-3c12.4,0.1,24.8,0.1,37.2,0
			c2,0,2.5,0.5,2.5,2.5c-0.1,60.3-0.1,120.6,0,180.9c0,2.2-0.9,2.3-2.6,2.3C629.7,969.2,584.5,969.2,539.4,969.2z"/>
		<path class="st0" d="M502.2,896.2c-32.6,0-65.2,0-97.9,0c-3.1,0-3.1,0-3.1-3c0-60,0-120-0.1-180c0-2.2,0.5-2.9,2.8-2.9
			c12.4,0.1,24.8,0.1,37.2,0c2.1,0,2.6,0.5,2.6,2.6c-0.1,46.4,0,92.8-0.1,139.3c0,2.4,0.6,2.9,3,2.9c51.1-0.1,102.2,0,153.4-0.1
			c2.3,0,3,0.5,3,2.9c-0.1,11.9-0.1,23.8,0,35.8c0,1.9-0.5,2.5-2.4,2.5C567.8,896.1,535,896.2,502.2,896.2z"/>
		<path class="st0" d="M502.2,184.5c32.7,0,65.4,0,98.1,0c2.1,0,2.8,0.5,2.7,2.7c-0.1,11.9-0.1,23.8,0,35.8c0,2.1-0.5,2.7-2.7,2.7
			c-51.1-0.1-102.3-0.1-153.4,0c-3.7,0-3.2-0.5-3.2,3.3c0,46.2,0,92.4,0,138.6c0,2.1-0.4,2.8-2.6,2.7c-12.5-0.1-24.9-0.1-37.4,0
			c-1.9,0-2.5-0.4-2.5-2.4c0.1-60.2,0.1-120.5,0-180.7c0-2.1,0.5-2.6,2.6-2.6C436.6,184.5,469.4,184.5,502.2,184.5z"/>
		<path class="st0" d="M537.9,824.6c-20.9,0-41.7,0-62.6,0c-2,0-2.5-0.5-2.4-2.5c0.1-36.5,0.1-72.9,0-109.4c0-2,0.6-2.4,2.5-2.4
			c12.5,0.1,25.1,0.1,37.6,0c1.8,0,2.4,0.4,2.3,2.3c-0.1,22.7,0,45.5-0.1,68.2c0,2.2,0.6,2.7,2.7,2.7c14.1-0.1,28.2,0,42.4,0
			c3.1,0,3.1,0,3.1-3c0-22.5,0-45-0.1-67.5c0-2.2,0.6-2.7,2.7-2.7c36.2,0.1,72.5,0.1,108.7,0c2.2,0,2.7,0.7,2.7,2.8
			c-0.1,11.4-0.1,22.7,0,34.1c0,2.1-0.4,2.8-2.7,2.8c-23.1-0.1-46.1,0-69.2-0.1c-2.1,0-2.7,0.5-2.7,2.7c0.1,23.1,0,46.3,0.1,69.4
			c0,2.2-0.6,2.7-2.7,2.7C579.5,824.6,558.7,824.6,537.9,824.6z"/>
		<path class="st0" d="M540.1,402.2c44.9,0,89.7,0,134.6-0.1c2.3,0,2.9,0.6,2.9,2.8c-0.1,11.9-0.1,23.8,0,35.8c0,2-0.6,2.4-2.5,2.4
			c-90,0-179.9,0-269.9,0c-1.9,0-2.3-0.5-2.3-2.3c0.1-12.1,0.1-24.2,0-36.2c0-2,0.5-2.5,2.5-2.5
			C450.2,402.2,495.1,402.2,540.1,402.2z"/>
		<path class="st0" d="M575.1,370.1c-33.2,0-66.3,0-99.5,0c-2,0-2.7-0.4-2.7-2.6c0.1-36.2,0.1-72.5,0-108.7c0-2,0.4-2.8,2.6-2.8
			c12.5,0.1,24.9,0.1,37.4,0c1.9,0,2.5,0.4,2.5,2.4c-0.1,23.1,0,46.3-0.1,69.4c0,2.1,0.4,2.7,2.6,2.7c52.1-0.1,104.1-0.1,156.2-0.1
			c3.3,0,3.3,0,3.3,3.4c0,11.1-0.1,22.3,0.1,33.4c0,2.4-0.7,2.8-2.9,2.8C641.5,370.1,608.3,370.1,575.1,370.1z"/>
		<path class="st0" d="M737.1,1049.6c-6,0-12.1-0.1-18.1,0c-1.7,0-2.3-0.3-2.3-2.1c0.1-12.3,0.1-24.6,0-36.9c0-1.7,0.5-2.1,2.1-2.1
			c12.3,0.1,24.6,0.1,36.9,0c1.7,0,2.1,0.6,2.1,2.2c-0.1,12.3-0.1,24.6,0,36.9c0,1.7-0.5,2.1-2.1,2.1
			C749.5,1049.5,743.3,1049.6,737.1,1049.6z"/>
	</g>
</g>
</svg>
